# xmcd
#
# Track frame offsets: 
#        150
#        674
#        16019
#        34284
#        54382
#        71291
#        89746
#        106787
#        125993
#        143612
#        158477
#        172759
#        191969
#        208013
#        224521
#        244023
#        258587
#        279353
#        297586
#        313549
#
# Disc length: 4428 seconds
#
# Revision: 0
# Processed by: cddbd v1.5.2PL0 Copyright (c) Steve Scherf et al.
# Submitted via: ExactAudioCopy v0.99pb4
#
DISCID=21114a14
DTITLE=Various Artist - prevue promo 1043A-2
DYEAR=2000
DGENRE=pop
TTITLE0=blank - data
TTITLE1=Martina McBride - There You Are(Movie WHERE The HEART IS )
TTITLE2=Kelly Price - As We Lay
TTITLE3=Alison Krauss - It Wouldn't Have Made Any Difference
TTITLE4=Calvin Richardson and K-Ci - 1'llTake Her
TTITLE5=Montell Jordan - Once Upon A Time(the remix)
TTITLE6=Neve - It's Over Now
TTITLE7=Tamar - If You Don't Wanna Love Me(Hex Hector Dance Remix)
TTITLE8=Juvenile Feat.  Mannie Fresh - I Got That Fire (LYRICS)
TTITLE9=2Ge+her - U and Me =Us (Calculus) 
TTITLE10=Crazy Town - Darkside 
TTITLE11=Uncle Kracker - Yeah, Yeah, Yeah
TTITLE12=Long Beach Dub Allstars - Saw Red 
TTITLE13=Steve Earle - Transcendental Blues
TTITLE14=Paul Rodgers - Drifters
TTITLE15=Pink Floyd - In The Flesh(live)
TTITLE16=Everclear - Wonderful ( Media Intro) 
TTITLE17=Foo Fighters and Brian May - Have A Cigar
TTITLE18=P.O.D. - Rock The Party (Off The Hook)
TTITLE19=Bottlefly - Lemoneyez 
EXTD=
EXTT0=
EXTT1=
EXTT2=
EXTT3=
EXTT4=
EXTT5=
EXTT6=
EXTT7=
EXTT8=
EXTT9=
EXTT10=
EXTT11=
EXTT12=
EXTT13=
EXTT14=
EXTT15=
EXTT16=
EXTT17=
EXTT18=
EXTT19=
PLAYORDER=
